<?xml version="1.0" standalone="no"?><!DOCTYPE svg PUBLIC "-//W3C//DTD SVG 1.1//EN" "http://www.w3.org/Graphics/SVG/1.1/DTD/svg11.dtd"><svg t="1729842746325" class="icon" viewBox="0 0 1024 1024" version="1.1" xmlns="http://www.w3.org/2000/svg" p-id="7408" xmlns:xlink="http://www.w3.org/1999/xlink" width="200" height="200"><path d="M270.4 104.8c-33.4 0-60.4 27-60.4 60.4v30.2c0 16.7 13.5 30.2 30.2 30.2h543.5c16.7 0 30.2-13.5 30.2-30.2v-30.2c0-33.4-27-60.4-60.4-60.4H270.4z m-60.3 150.9c-33.4 0-60.4 27-60.4 60.4v30.2c0 8 3.2 15.7 8.8 21.4 5.7 5.7 13.3 8.8 21.4 8.8h664.3c8 0 15.7-3.2 21.3-8.8 5.7-5.7 8.8-13.3 8.8-21.4v-30.2c0-33.4-27-60.4-60.4-60.4H210.1z m0 0" fill="#FFAA44" p-id="7409"></path><path d="M512 527.5c55.2 0 103.4-37.4 117.1-90.9 4.1-16.2 17.2-29.9 33.9-29.9h211.4c33.3 0 60.4 27 60.4 60.4V769c0 32-12.7 62.8-35.4 85.4-22.7 22.7-53.4 35.4-85.4 35.4H210.1c-32 0-62.8-12.7-85.4-35.4-22.7-22.6-35.4-53.3-35.4-85.4V467.1c0-33.3 27-60.4 60.4-60.4H361c16.7 0 29.8 13.7 33.9 29.9 13.7 53.5 61.9 90.9 117.1 90.9z m0 0" fill="#FF7744" p-id="7410"></path><path d="M345.9 708.7c0-12 4.8-23.5 13.3-32s20-13.3 32-13.3h241.6c25 0 45.3 20.3 45.3 45.3S657.8 754 632.8 754H391.2c-25-0.1-45.3-20.3-45.3-45.3z m0 0" fill="#FFFFFF" p-id="7411"></path></svg>