<svg t="1726402083437" class="icon" viewBox="0 0 1024 1024" version="1.1" xmlns="http://www.w3.org/2000/svg" p-id="5512" width="200" height="200"><path d="M1020.032 514.432c0-204.8-121.6-390.4-313.6-473.6s-409.6-32-550.4 108.8-185.6 364.8-108.8 550.4c76.8 192 262.4 313.6 467.2 313.6 275.2 6.4 505.6-224 505.6-499.2z m-704 102.4c-19.2 19.2-51.2 19.2-64 0-6.4-6.4-12.8-19.2-12.8-32s6.4-25.6 12.8-32l224-230.4c19.2-19.2 44.8-19.2 64 0l236.8 230.4c12.8 12.8 19.2 32 12.8 44.8 0 25.6-19.2 38.4-32 38.4-19.2 6.4-32 0-44.8-12.8l-198.4-198.4-198.4 192z" fill="#4e5969" p-id="5513"></path></svg>