<svg t="1740985322570" class="icon" viewBox="0 0 1024 1024" version="1.1" xmlns="http://www.w3.org/2000/svg" p-id="3235" width="200" height="200"><path d="M10.449 504.832C10.449 227.83 234.998 3.281 512 3.281s501.551 224.549 501.551 501.551S789.002 1006.383 512 1006.383 10.449 781.834 10.449 504.832z" fill="#F8991D" p-id="3236"></path><path d="M779.494 705.452h-89.15c0-208.958-170.006-378.963-378.964-378.963v-89.15c258.11 0 468.114 210.003 468.114 468.113zM311.38 638.58a66.873 66.873 0 1 1 133.747 0 66.873 66.873 0 0 1-133.747 0z m222.918 66.873h89.15c0-172.073-139.995-312.09-312.068-312.09v89.193c122.921 0 222.918 99.976 222.918 222.897z" fill="#FFFFFF" p-id="3237"></path></svg>