<svg t="1726402813877" class="icon" viewBox="0 0 1024 1024" version="1.1" xmlns="http://www.w3.org/2000/svg" p-id="17656" width="200" height="200"><path d="M0 0m512 0l0 0q512 0 512 512l0 0q0 512-512 512l0 0q-512 0-512-512l0 0q0-512 512-512Z" fill="#539dfd" p-id="17657" data-spm-anchor-id="a313x.search_index.0.i13.6dd03a81uqPC9n" class="selected"></path><path d="M785.504 479.936a283.84 283.84 0 1 0-567.616 0 283.84 283.84 0 1 0 567.616 0z m-496.384 0a212.576 212.576 0 1 1 425.152 0 212.576 212.576 0 0 1-425.152 0z m363.712 151.2a34.432 34.432 0 0 0 0 48.608l117.088 116.928a34.336 34.336 0 0 0 48.512-48.608l-116.992-116.896-25.376 25.184 116.928 116.928a1.28 1.28 0 0 1 0-1.824 1.312 1.312 0 0 1 1.792 0l-116.64-116.896a1.216 1.216 0 0 1 0 1.792 1.312 1.312 0 0 1-1.792 0l25.376-25.184a34.304 34.304 0 0 0-48.544 0l-0.32-0.032z" fill="#FFFFFF" p-id="17658"></path></svg>