<svg t="1737469209388" class="icon" viewBox="0 0 1064 1024" version="1.1" xmlns="http://www.w3.org/2000/svg" p-id="3248" width="200" height="200"><path d="M612.997053 38.465982c1.615607 2.056227 3.52496 3.96558 4.993693 6.16868-1.615607-2.2031-3.378087-4.112454-4.993693-6.16868z m-27.465316-23.940355a101.562917 101.562917 0 0 1 22.765369 18.359168 101.562917 101.562917 0 0 0-22.765369-18.359168zM409.724344 114.840121l-55.224377 112.651855a105.087878 105.087878 0 0 1-5.434314 9.69364 105.087878 105.087878 0 0 0 5.434314-9.69364z m443.116879-83.42406a106.409738 106.409738 0 0 1 27.318442 7.343668 106.409738 106.409738 0 0 0-27.318442-7.343668z" fill="#FFBA00" p-id="3249"></path><path d="M974.892972 310.181668l-185.647907-26.437202a105.455061 105.455061 0 0 1-79.605352-57.721224L630.034361 66.371917a179.919846 179.919846 0 0 1-296.684155 190.935348 105.748808 105.748808 0 0 1-58.014971 29.374668l-185.501034 26.437202a105.455061 105.455061 0 0 0-57.868097 179.919847l134.682856 130.423529a105.455061 105.455061 0 0 1 30.549656 93.264574l-30.990276 184.91354a105.455061 105.455061 0 0 0 153.335771 110.155008l166.113752-88.124007a105.381624 105.381624 0 0 1 98.111394 0l166.260626 86.802147a105.455061 105.455061 0 0 0 152.601404-111.623742l-32.312136-184.766666a105.381624 105.381624 0 0 1 29.374669-93.411447l133.94849-131.30477a105.455061 105.455061 0 0 0-58.749338-179.18548z m-442.235639 433.276365a113.239348 113.239348 0 0 1-113.092474-113.533095 26.363765 26.363765 0 0 1 52.72753 0 60.364944 60.364944 0 0 0 120.729889 0 26.363765 26.363765 0 1 1 52.72753 0 113.239348 113.239348 0 0 1-113.092475 113.239349zM342.896973 245.851144l3.818707-4.993694z" fill="#FFBA00" p-id="3250"></path><path d="M630.034361 66.371917l-3.965581-7.93116a112.945602 112.945602 0 0 0-8.224907-13.806095 112.945602 112.945602 0 0 1 8.078034 13.806095zM442.91772 48.893989a116.984619 116.984619 0 0 0-5.874934 10.134261l-27.318442 55.811871 27.318442-55.811871a116.984619 116.984619 0 0 1 5.874934-10.134261zM346.128186 240.710577l2.349974-3.671834zM517.235632 0.866406a103.766018 103.766018 0 0 0-69.764838 41.565156 103.766018 103.766018 0 0 1 69.764838-41.418283z m91.061474 31.871516c1.615607 1.76248 3.08434 3.818707 4.553073 5.72806a21.149762 21.149762 0 0 0-4.553073-5.581187zM333.350206 256.572898a101.636354 101.636354 0 0 0 9.546767-10.721754 109.494078 109.494078 0 0 1-9.546767 10.721754z" fill="#FFFFFF" p-id="3251"></path><path d="M642.077975 130.555569a179.332353 179.332353 0 0 0-12.043614-64.477398l-3.965581-7.931161a112.945602 112.945602 0 0 0-8.078034-13.806094c-1.615607-2.2031-3.378087-4.112454-4.993693-6.168681s-2.937467-3.96558-4.553074-5.72806a102.076974 102.076974 0 0 0-22.912242-17.918548 103.251961 103.251961 0 0 0-12.777981-6.315554 110.155008 110.155008 0 0 0-55.518124-7.343667 103.766018 103.766018 0 0 0-69.764838 41.565156c-1.615607 2.2031-3.08434 4.4062-4.553074 6.756174a116.984619 116.984619 0 0 0-5.874934 10.134261l-27.318442 55.811871-55.224377 112.358108a105.087878 105.087878 0 0 1-5.434314 9.69364l-2.349973 3.671834-3.818707 4.993694a101.636354 101.636354 0 0 1-9.546767 10.721754 179.919846 179.919846 0 0 0 308.434022-125.723583z" fill="#FFBA00" p-id="3252"></path><path d="M642.077975 130.555569a179.332353 179.332353 0 0 0-12.043614-64.477398l-3.965581-7.931161a112.945602 112.945602 0 0 0-8.078034-13.806094c-1.615607-2.2031-3.378087-4.112454-4.993693-6.168681s-2.937467-3.96558-4.553074-5.72806a102.076974 102.076974 0 0 0-22.912242-17.918548 103.251961 103.251961 0 0 0-12.777981-6.315554 110.155008 110.155008 0 0 0-55.518124-7.343667 103.766018 103.766018 0 0 0-69.764838 41.565156c-1.615607 2.2031-3.08434 4.4062-4.553074 6.756174a116.984619 116.984619 0 0 0-5.874934 10.134261l-27.318442 55.811871-55.224377 112.358108a105.087878 105.087878 0 0 1-5.434314 9.69364l-2.349973 3.671834-3.818707 4.993694a101.636354 101.636354 0 0 1-9.546767 10.721754 179.919846 179.919846 0 0 0 308.434022-125.723583z" fill="#FEC744" p-id="3253"></path></svg>