<?xml version="1.0" standalone="no"?><!DOCTYPE svg PUBLIC "-//W3C//DTD SVG 1.1//EN" "http://www.w3.org/Graphics/SVG/1.1/DTD/svg11.dtd"><svg t="1661910170896" class="icon" viewBox="0 0 1024 1024" version="1.1" xmlns="http://www.w3.org/2000/svg" p-id="2849" width="46" height="46" xmlns:xlink="http://www.w3.org/1999/xlink"><path d="M583.2 207l-48.6 20.8c-12.9 5.6-27.7 5.6-40.6 0L445.5 207c-56-24-116.4-36.4-177.5-36.4h-85.2c-56.9 0-103 45.3-103 101.1v448.5c0 55.8 46.1 101.1 103 101.1H268c61.1 0 121.5 12.4 177.5 36.4l48.6 20.8c12.9 5.6 27.7 5.6 40.6 0l48.6-20.8c56-24 116.4-36.4 177.5-36.4H846c56.9 0 103-45.3 103-101.1V271.7c0-55.8-46.1-101.1-103-101.1h-85.2c-61.2 0-121.6 12.4-177.6 36.4z" fill="#37AFFA" p-id="2850"></path><path d="M948.8 271.7c0-55.8-46.1-101.1-103-101.1h-6.3c55.6 62.7 94.4 140.6 109.2 226.8l0.1-125.7zM79.8 271.7v6.7c17.4-36.5 39.5-70.4 65.4-100.9-38.2 14.7-65.4 51.3-65.4 94.2zM79.8 673.5v46.7c0 55.8 46.1 101.1 103 101.1h8.6c-46.5-41-84.6-91.3-111.6-147.8zM948.8 720.1V554.5c-18.2 105.6-72.3 198.9-149.4 266.7h46.4c56.9 0 103-45.2 103-101.1z" fill="#37AFFA" p-id="2851"></path><path d="M198.1 170.6h-15.3c-13.2 0-25.9 2.5-37.5 6.9-26 30.5-48 64.3-65.4 100.9v147.5c7-99.8 50.9-189.5 118.2-255.3zM948.8 554.5V397.3c-14.8-86.1-53.6-164.1-109.2-226.8h-78.9c-2.3 0-4.7 0-7 0.1 73.6 72.1 119.2 172.5 119.2 283.7 0 219.3-177.8 397-397 397-19.3 0-38.2-1.4-56.8-4 8.9 3.2 17.7 6.6 26.4 10.3l48.6 20.8c12.9 5.6 27.7 5.6 40.6 0l48.6-20.8c56-24 116.4-36.4 177.5-36.4h38.8c76.9-67.9 131.1-161.1 149.2-266.7zM79.8 482.7v190.8c26.9 56.6 65.1 106.8 111.6 147.8H268c23.5 0 46.8 1.8 69.9 5.4C195.1 773.7 91 641 79.8 482.7z" fill="#41B6FB" p-id="2852"></path><path d="M872.9 454.3c0-111.1-45.7-211.6-119.2-283.7-27 0.4-53.7 3.3-80.1 8.4 71.4 61.3 116.7 152.1 116.7 253.6 0 184.5-149.5 334-334 334s-334-149.5-334-334c0-106.3 49.6-200.9 127-262.1h-51.1C130.8 236.4 86.9 326.1 79.8 425.9v56.8c11.2 158.4 115.2 291.1 258 344 27.6 4.3 54.8 11.2 81.2 20.6 18.5 2.7 37.5 4 56.8 4 219.3 0 397.1-177.7 397.1-397z" fill="#4CBCFC" p-id="2853"></path><path d="M122.3 432.7c0 184.5 149.5 334 334 334s334-149.5 334-334c0-101.5-45.3-192.3-116.7-253.6-23.4 4.6-46.5 11.1-69 19.4 62.7 49.6 103 126.4 103 212.6 0 149.6-121.3 271-271 271s-271-121.3-271-271c0-103.2 57.7-192.9 142.6-238.7-13.4-1.2-26.8-1.8-40.3-1.8h-18.8c-77.2 61.1-126.8 155.8-126.8 262.1z" fill="#56C3FD" p-id="2854"></path><path d="M165.7 411c0 149.6 121.3 271 271 271s271-121.3 271-271c0-86.2-40.3-163-103-212.6-7.2 2.7-14.4 5.5-21.4 8.5l-40 17.1c49.7 38 81.8 97.9 81.8 165.3 0 114.8-93.1 207.9-207.9 207.9s-207.9-93.1-207.9-207.9c0-102.2 73.8-187.2 171-204.6-23.6-6.1-47.6-10.2-71.9-12.4-85 45.8-142.7 135.5-142.7 238.7z" fill="#60C9FD" p-id="2855"></path><path d="M209.2 389.4c0 114.8 93.1 207.9 207.9 207.9S625 504.2 625 389.4c0-67.4-32.1-127.3-81.8-165.3l-8.6 3.7c-12.9 5.6-27.7 5.6-40.6 0L445.5 207c-21.2-9.1-43-16.5-65.2-22.2-97.3 17.4-171.1 102.4-171.1 204.6z m188.3-166.5c80 0 144.9 64.9 144.9 144.9s-64.9 144.9-144.9 144.9-144.9-64.9-144.9-144.9 64.9-144.9 144.9-144.9z" fill="#6BCFFE" p-id="2856"></path><path d="M397.5 367.8m-144.9 0a144.9 144.9 0 1 0 289.8 0 144.9 144.9 0 1 0-289.8 0Z" fill="#75D6FF" p-id="2857"></path><path d="M845.9 188.6c46.8 0 85 37.3 85 83.1v448.5c0 45.8-38.1 83.1-85 83.1h-85.2c-63.9 0-126 12.7-184.6 37.9L527.5 862c-4.2 1.8-8.6 2.7-13.2 2.7s-9-0.9-13.2-2.7l-48.6-20.8c-58.5-25.2-120.6-38-184.5-38h-85.2c-46.8 0-85-37.3-85-83.1V271.7c0-45.8 38.1-83.1 85-83.1H268c29.2 0 58.5 3 87 8.8 28.6 5.9 56.6 14.6 83.3 26.1l48.6 20.8c8.7 3.7 17.9 5.6 27.4 5.6s18.7-1.9 27.4-5.6l48.6-20.8c26.7-11.5 54.8-20.3 83.3-26.1 28.6-5.9 57.9-8.8 87-8.8h85.3m0-18h-85.2c-61.1 0-121.5 12.4-177.5 36.4l-48.6 20.8c-6.5 2.8-13.4 4.2-20.3 4.2s-13.8-1.4-20.3-4.2L445.5 207c-56-24-116.4-36.4-177.5-36.4h-85.2c-56.9 0-103 45.3-103 101.1v448.5c0 55.8 46.1 101.1 103 101.1H268c61.1 0 121.5 12.4 177.5 36.4l48.6 20.8c6.5 2.8 13.4 4.2 20.3 4.2s13.8-1.4 20.3-4.2l48.6-20.8c56-24 116.4-36.4 177.5-36.4H846c56.9 0 103-45.3 103-101.1V271.7c-0.2-55.9-46.3-101.1-103.1-101.1z" fill="#37AFFA" p-id="2858"></path><path d="M409 340.1c-58.3-23.8-115.8-27.8-173.1-28.4-19-0.2-34.4 15.7-34.4 35.1v299.6c0 19.5 15.4 35.2 34.4 35.3 57.3 0.4 114.9 3 173.6 18.6 19.5 5.5 34.7-8.3 34.7-31.9 0-13.4-0.6-278.1-0.6-288 0-13.2-15.3-32-34.6-40.3z m383.7-28.5c-57.5 0.6-115.1 4.5-173.5 27.9-19.4 8.2-34.7 26.7-34.7 39.5 0 9.7-0.6 25.9-0.6 39.1 0 23.1 15.2 36.7 34.8 31.3 58.8-15.2 82.3-25.1 174-35.6 18.9-2.1 34.5-15.5 34.5-34.6v-33.1c0-19.1-15.5-34.7-34.5-34.5z m0 156.5c-57.5 0.6-118.3 11.9-176.7 35.3-19.4 8.2-31.5 19.3-31.4 32.1 0 9.7-0.6 16.7-0.6 21.7 0 23.1 15.2 36.7 34.8 31.3 58.8-15.3 82.3-25.1 174-35.6 18.9-2.1 34.5-12.4 34.5-34.6v-15.5c-0.1-19.2-15.6-34.9-34.6-34.7z" fill="#B9E8FF" p-id="2859"></path><path d="M366.4 258.7c-1.5 0-3.1-0.2-4.7-0.6-54.6-14.7-132.2-11.2-132.9-11.2-9.9 0.5-18.4-7.2-18.8-17.1s7.2-18.4 17.1-18.8c3.4-0.2 84-3.7 144 12.4 9.6 2.6 15.3 12.4 12.7 22.1-2.2 7.9-9.5 13.2-17.4 13.2zM168 246.9h-10.5c-9.9 0-18-8.1-18-18s8.1-18 18-18H168c9.9 0 18 8.1 18 18s-8.1 18-18 18z" fill="#FFFFFF" p-id="2860"></path></svg>