<?xml version="1.0" standalone="no"?><!DOCTYPE svg PUBLIC "-//W3C//DTD SVG 1.1//EN" "http://www.w3.org/Graphics/SVG/1.1/DTD/svg11.dtd"><svg t="1661910312602" class="icon" viewBox="0 0 1024 1024" version="1.1" xmlns="http://www.w3.org/2000/svg" p-id="11233" width="46" height="46" xmlns:xlink="http://www.w3.org/1999/xlink"><path d="M515.036 97.165c230.305 0 417.003 186.696 417.003 417.001 0 230.3-186.697 416.999-417.003 416.999-67.003 0-130.31-15.804-186.409-43.886-27.282-13.657-140.404 29.584-163.868 10.524-26.099-21.201 37.963-105.294 17.648-132.119-52.952-69.919-84.368-157.051-84.368-251.518-0.001-230.305 186.697-417.001 416.997-417.001z" fill="#FFA820" p-id="11234"></path><path d="M515.036 97.165c-69.897 0-135.775 17.201-193.639 47.595 49.242-19.975 103.079-30.981 159.489-30.981 234.47 0 424.545 190.075 424.545 424.545 0 108.004-40.331 206.588-106.754 281.514 82.03-76.152 133.361-184.918 133.361-305.673 0-230.304-186.697-417-417.002-417zM172.738 830.351c-10.677 28.227-21.592 56.395-7.979 67.453 12.134 9.856 48.24 3.053 84.055-3.927a426.664 426.664 0 0 1-76.076-63.526z" fill="#FEAC33" p-id="11235"></path><path d="M480.886 113.779c-56.409 0-110.247 11.006-159.489 30.981-113.612 59.678-196.317 170.232-217.835 301.384 33.539-167.752 181.63-294.148 359.248-294.148 202.341 0 366.371 164.03 366.371 366.371S665.151 884.739 462.81 884.739c-157.098 0-291.096-98.88-343.168-237.796 14.49 43.164 35.834 83.182 62.764 118.741 9.719 12.834 0.125 38.775-9.668 64.666a426.7 426.7 0 0 0 76.076 63.526c33.447-6.519 66.639-13.192 79.813-6.597 56.099 28.081 119.406 43.886 186.409 43.886 109.547 0 209.226-42.244 283.641-111.326 66.422-74.926 106.754-173.51 106.754-281.514 0-234.47-190.075-424.546-424.545-424.546z" fill="#FEB133" p-id="11236"></path><path d="M462.81 884.739c202.341 0 366.371-164.03 366.371-366.371S665.151 151.996 462.81 151.996c-177.618 0-325.708 126.396-359.248 294.148a419.89 419.89 0 0 0-5.524 68.022c0 46.424 7.602 91.069 21.604 132.777 52.072 138.916 186.07 237.796 343.168 237.796z m-18.076-694.526c170.213 0 308.198 137.985 308.198 308.198S614.947 806.608 444.734 806.608 136.536 668.624 136.536 498.411s137.985-308.198 308.198-308.198z" fill="#FEB633" p-id="11237"></path><path d="M444.734 806.608c170.213 0 308.198-137.985 308.198-308.198S614.947 190.213 444.734 190.213 136.536 328.198 136.536 498.411s137.985 308.197 308.198 308.197z m-18.076-578.179c138.085 0 250.024 111.94 250.024 250.024s-111.94 250.024-250.024 250.024-250.024-111.94-250.024-250.024 111.94-250.024 250.024-250.024z" fill="#FFBC34" p-id="11238"></path><path d="M426.658 728.478c138.085 0 250.024-111.94 250.024-250.024S564.742 228.43 426.658 228.43 176.634 340.37 176.634 478.454s111.94 250.024 250.024 250.024z m-18.076-461.832c105.956 0 191.851 85.894 191.851 191.851s-85.894 191.851-191.851 191.851-191.851-85.894-191.851-191.851 85.895-191.851 191.851-191.851z" fill="#FFC134" p-id="11239"></path><path d="M408.582 650.347c105.956 0 191.851-85.894 191.851-191.851s-85.894-191.851-191.851-191.851-191.851 85.894-191.851 191.851 85.895 191.851 191.851 191.851z m-18.076-345.484c73.828 0 133.677 59.849 133.677 133.677s-59.849 133.677-133.677 133.677-133.677-59.849-133.677-133.677 59.85-133.677 133.677-133.677z" fill="#FFC634" p-id="11240"></path><path d="M390.506 438.54m-133.677 0a133.677 133.677 0 1 0 267.354 0 133.677 133.677 0 1 0-267.354 0Z" fill="#FFCB34" p-id="11241"></path><path d="M515.036 115.165c53.873 0 106.125 10.547 155.305 31.348 47.511 20.095 90.184 48.867 126.833 85.516 36.649 36.649 65.421 79.322 85.517 126.832 20.801 49.179 31.348 101.431 31.348 155.304 0 53.872-10.547 106.123-31.348 155.302-20.095 47.51-48.867 90.183-85.517 126.832-36.65 36.649-79.322 65.421-126.833 85.517-49.18 20.801-101.432 31.348-155.305 31.348-31.471 0-62.797-3.674-93.109-10.919a396.738 396.738 0 0 1-85.243-31.063c-6.212-3.11-14.125-4.621-24.191-4.621-17.655-0.001-40.642 4.483-64.979 9.229-22.558 4.4-45.884 8.949-61.471 8.949-5.373 0-8.206-0.549-9.501-0.917-0.252-1.523-0.435-5.499 1.7-13.996 2.365-9.411 6.499-20.336 10.875-31.902 11.56-30.552 23.515-62.144 7.638-83.108-25.685-33.915-45.656-71.432-59.358-111.509-14.173-41.453-21.359-84.903-21.359-129.142 0-53.873 10.547-106.125 31.348-155.304 20.095-47.511 48.867-90.183 85.516-126.833 36.649-36.649 79.321-65.421 126.832-85.516 49.179-20.8 101.43-31.347 155.302-31.347m0-18c-230.3 0-416.997 186.696-416.997 417.001 0 94.468 31.416 181.6 84.368 251.518 20.315 26.825-43.747 110.918-17.648 132.119 4.368 3.548 11.835 4.937 21.285 4.937 34.169 0 94.162-18.179 126.449-18.178 6.751 0 12.295 0.795 16.135 2.717 56.099 28.081 119.406 43.886 186.409 43.886 230.305 0 417.003-186.699 417.003-416.999-0.002-230.305-186.699-417.001-417.004-417.001z" fill="#FFA820" p-id="11242"></path><path d="M358.665 390.368c-57.575 0-104.25 46.676-104.25 104.252 0 57.574 46.674 104.25 104.25 104.25 57.575 0 104.25-46.676 104.25-104.25-0.001-57.576-46.675-104.252-104.25-104.252z m312.747 0c-57.575 0-104.25 46.676-104.25 104.252 0 57.574 46.674 104.25 104.25 104.25 57.575 0 104.25-46.676 104.25-104.25 0-57.576-46.674-104.252-104.25-104.252z" fill="#FFE3B4" p-id="11243"></path><path d="M235.575 327.777c-5.14 1.318-10.81 0.36-15.365-3.098-7.918-6.012-9.463-17.303-3.451-25.221 45.291-59.651 93.864-92.824 95.91-94.207 8.235-5.566 19.425-3.406 24.993 4.83 5.566 8.232 3.407 19.416-4.82 24.987-0.759 0.518-46.039 31.67-87.411 86.16a17.918 17.918 0 0 1-9.856 6.549zM197.502 388.037a17.939 17.939 0 0 1-13.298-1.753c-8.662-4.877-11.731-15.854-6.853-24.516l5.519-9.801c4.878-8.662 15.853-11.73 24.516-6.853 8.662 4.877 11.731 15.854 6.853 24.516l-5.519 9.801a17.946 17.946 0 0 1-11.218 8.606z" fill="#FFFFFF" p-id="11244"></path></svg>