<svg t="1729851632614" class="icon" viewBox="0 0 1024 1024" version="1.1" xmlns="http://www.w3.org/2000/svg" p-id="7882" width="200" height="200"><path d="M344.64 877.76h336.64a24.96 24.96 0 0 1 28.16 28.16 24.64 24.64 0 0 1-28.16 27.84H344.64a24.96 24.96 0 0 1-28.16-27.84 24.96 24.96 0 0 1 28.16-28.16z" fill="#7194FD" p-id="7883"></path><path d="M456.96 765.44h112.32v112.32h-112.32z" fill="#7194FD" p-id="7884"></path><path d="M905.92 92.16H120A49.28 49.28 0 0 0 64 148.16v561.28a49.28 49.28 0 0 0 56 56h785.92a49.28 49.28 0 0 0 56-56V148.16a49.28 49.28 0 0 0-56-56z m-569.6 494.4a32 32 0 0 1-34.24 30.08 32 32 0 0 1-34.24-30.08v-180.8a32 32 0 0 1 34.24-30.08 32 32 0 0 1 34.24 30.08z m210.88 0a34.56 34.56 0 0 1-68.48 0V285.12a34.56 34.56 0 0 1 68.48 0z m211.2 0a34.56 34.56 0 0 1-68.8 0v-120.64a34.56 34.56 0 0 1 68.8 0z" fill="#7194FD" p-id="7885"></path></svg>