<svg t="1747738301352" class="icon" viewBox="0 0 1024 1024" version="1.1" xmlns="http://www.w3.org/2000/svg" p-id="8137" width="200" height="200"><path d="M734.485 637.566l-96.168-95.326c-22.612-22.414 0-45.538 0-45.538l103.17-102.268c70.032-69.419 67.162-170.563 67.162-170.563l0.016-131.26L511.999 67 215.334 92.611l0.016 131.26s-2.871 101.144 67.162 170.563l103.17 102.268s22.612 23.124 0 45.538l-96.168 95.326s-74.161 72.923-74.161 189.243c0 116.318-0.016 130.19-0.016 130.19h593.33s-0.018-13.873-0.018-130.19c-0.002-116.319-74.164-189.243-74.164-189.243z" fill="#889FFF" p-id="8138"></path><path d="M368.293 804.902h287.411l-127.74-117.637-0.002-147.045c-0.256-34.087 14.715-55.622 21.475-62.528l66.63-66.042c23.268-23.059 23.675-60.251 23.693-60.411H384.231c-0.009 0.356 0.826 37.738 23.693 60.411l67.353 66.769c6.042 6.18 21.505 27.715 21.248 61.801l-0.4 146.958-127.832 117.724z" fill="#FFFFFF" p-id="8139"></path></svg>